<svg xmlns="http://www.w3.org/2000/svg" viewBox="0 0 512 387.96"><path d="M492,177.19,421,239l-.29,6.22a50.64,50.64,0,0,1-3.37,13.68c-1.09,2.71-2.34,5.42-3.66,8.13L333.16,197.6a14.72,14.72,0,0,0-11.41-3.43c-.74.14-59.78,7.54-118.61,32.34-5.86,2.48-10.25,3.22-13.18,3.22a10.87,10.87,0,0,1-4.9-.95,8,8,0,0,1-3.8-3.95,18.16,18.16,0,0,1-1.83-8.27c0-4.53,1.6-9.15,3.43-11.42,2.28-2.93,5.06-6.95,8.86-12.14a297.57,297.57,0,0,1,22.69-27.37c9.21-9.74,19.9-19.1,31.09-25.68a76.21,76.21,0,0,1,40.32-11.2,152.6,152.6,0,0,1,21.88,2c7,1,13.83,2.34,21.22,2.34a38.07,38.07,0,0,0,14.85-2.64h.07c8.06-3.43,16-8.49,23.94-14.19a401,401,0,0,0,32.48-26.93c1.76-1.54,3.37-3.07,4.83-4.47l-20-21.28C380.72,67.65,375,72.77,368.87,78c-6.29,5.42-13.1,10.9-19.54,15.44s-12.58,8.27-16.75,10a9.72,9.72,0,0,1-3.66.44c-3.51.07-9.51-.88-16.9-2a175,175,0,0,0-26.2-2.34,103.8,103.8,0,0,0-28.32,3.81,105.81,105.81,0,0,0-28.32-3.81,173.84,173.84,0,0,0-26.12,2.34c-7.39,1.1-13.39,2.05-17,2a9.47,9.47,0,0,1-3.59-.44c-4.47-1.76-11.13-5.85-18-10.83a357.45,357.45,0,0,1-30-24.88c-2.27-2.05-4.32-4-6.15-5.63l-20,21.29c4.32,4,10,9.22,16.24,14.71,7,6,14.86,12.44,22.76,18.22s15.88,10.76,23.93,14.19a38.32,38.32,0,0,0,14.85,2.64c7.39,0,14.27-1.24,21.3-2.34.51-.07,1-.07,1.39-.15a231.53,231.53,0,0,0-25.39,25.83c-6.08,7.09-11.13,13.75-15.22,19.24s-7,9.81-8.42,11.56c-6.66,8.64-9.51,19-9.59,29.34.08,9.67,2.64,19.76,9.29,28.25a36.52,36.52,0,0,0,13,10.39A41.33,41.33,0,0,0,190,259c7.83,0,15.95-1.91,24.59-5.56,27.07-11.42,55-19.1,76-23.79,10.54-2.33,19.32-4,25.47-5,1.17-.22,2.12-.36,3.07-.51l92,79.24v.08h.07a6,6,0,0,1-.8,2.34,20,20,0,0,1-16.61,9.66,19.26,19.26,0,0,0-3.59.44,33.62,33.62,0,0,1-6.22-1.91,63.16,63.16,0,0,1-16.46-9.87,58.6,58.6,0,0,1-4.9-4.32l-1.24-1.17-.3-.29v-.07a11.07,11.07,0,0,0-15.51-.67,11,11,0,0,0-.66,15.52,88.8,88.8,0,0,0,14.92,12.66,83.46,83.46,0,0,0,16.18,8.7c1.39.52,2.92,1.1,4.46,1.54a15,15,0,0,0,1.61,2.78H382l.07.08a11.22,11.22,0,0,1,.58,4.31c.08,4-1.38,9.29-3.51,12.22a9,9,0,0,1-3.07,3,8.4,8.4,0,0,1-4.1,1h-.73a3.09,3.09,0,0,0-1.17.07H370c-9.51,0-18.37-4.1-24.88-8.56a63.23,63.23,0,0,1-7.69-6.08,22,22,0,0,1-1.9-1.9l-.44-.43-.07-.08v-.07a10.82,10.82,0,0,0-8.27-3.74,10.7,10.7,0,0,0-7.17,2.71,10.87,10.87,0,0,0-1.1,15.45,76.18,76.18,0,0,0,14.27,12.29,72.66,72.66,0,0,0,22.39,10.39,3.17,3.17,0,0,0-.29.73c-1.17,2.63-2.78,5.27-7.32,7.9a34.71,34.71,0,0,1-6.73,3.15,10.82,10.82,0,0,1-3.44.51,37.82,37.82,0,0,1-7.09-1,16.89,16.89,0,0,0-2-.22,5.41,5.41,0,0,1-.73-.3,69.53,69.53,0,0,1-11.35-7.46c-1.61-1.24-3-2.48-3.95-3.29l-1.09-1-.23-.23h-.07a10.95,10.95,0,1,0-15.15,15.81A103,103,0,0,0,307,403.37c1.1.88,2.42,1.69,3.66,2.49a19.49,19.49,0,0,1-5.49,6.07,16.67,16.67,0,0,1-10.16,3,32.33,32.33,0,0,1-12.3-2.71A45.93,45.93,0,0,1,278.5,410a38.3,38.3,0,0,0,1.24-9.51,36.37,36.37,0,0,0-33.37-36.37c0-.37.08-.8.08-1.17a40.82,40.82,0,0,0-6-21.22,40.05,40.05,0,0,0-33.95-18.95h-.22c-.59,0-1.1.07-1.61.07A39.22,39.22,0,0,0,199,306.42,40.08,40.08,0,0,0,172,288.12a40.72,40.72,0,0,0-6-20.78,40.21,40.21,0,0,0-55.39-12.87l-14,8.7c-.37-.73-.8-1.54-1.1-2.26-2.49-5.86-4-11.72-4.17-15.66L91,239l-71-61.83L0,198.48l62.86,54.81A86.47,86.47,0,0,0,68.42,272c1.54,3.81,3.3,7.4,5,10.76A40,40,0,0,0,100.54,343a40.14,40.14,0,0,0,40.18,39.81,11.32,11.32,0,0,0,1.53-.15A41.09,41.09,0,0,0,148,399.2a40.25,40.25,0,0,0,34.18,18.95,35.15,35.15,0,0,0,3.95-.29,37.31,37.31,0,0,0,5.19,14.85,36.67,36.67,0,0,0,50.42,11.78l18.29-11.34a64.76,64.76,0,0,0,11.35,6,60.1,60.1,0,0,0,23.63,5,46.08,46.08,0,0,0,27-8.27A49.63,49.63,0,0,0,335.65,421c.58,0,1.1.07,1.69.07a39.83,39.83,0,0,0,12.06-1.83,63.27,63.27,0,0,0,12.6-5.63,46.12,46.12,0,0,0,19.83-22c.65-1.68,1.17-3.22,1.6-4.69a33.91,33.91,0,0,0,7.18-3.07A41.23,41.23,0,0,0,407.22,365a53.17,53.17,0,0,0,4.68-21.8c0-.73-.08-1.39-.15-2.12a49,49,0,0,0,14.12-8.71,45.16,45.16,0,0,0,10.25-12.73,34.5,34.5,0,0,0,4.32-16.32,29,29,0,0,0-2.56-11.92,20.07,20.07,0,0,0-2.12-3.52,137.78,137.78,0,0,0,8.85-18.51,85,85,0,0,0,4.54-16L512,198.48ZM114.23,312.42l-.66.43a11.15,11.15,0,0,1-5.78,1.62,11,11,0,0,1-11-10.91,11.11,11.11,0,0,1,5.2-9.3l24.07-15a11.38,11.38,0,0,1,5.78-1.6,10.84,10.84,0,0,1,9.29,5.12l12.44-7.69-12.44,7.76a10.36,10.36,0,0,1,1.69,5.71,11.25,11.25,0,0,1-2.64,7l-20.71,12.87A39.76,39.76,0,0,0,114.23,312.42Zm32.27,39.43a10.53,10.53,0,0,1-5.78,1.69,10.86,10.86,0,0,1-9.3-5.19,10.37,10.37,0,0,1-1.68-5.71,11.23,11.23,0,0,1,2.64-7l20.7-12.88a39.92,39.92,0,0,0,5.2-4l.73-.44a10.74,10.74,0,0,1,5.78-1.68,10.9,10.9,0,0,1,9.29,5.19,10.36,10.36,0,0,1,1.69,5.71,11.16,11.16,0,0,1-5.2,9.37Zm65.56,20.42-24.15,15a10.93,10.93,0,1,1-11.49-18.59l24.08-15a11.2,11.2,0,0,1,5.78-1.6,10.84,10.84,0,0,1,9.29,5.12,11.11,11.11,0,0,1,1.61,5.78A10.84,10.84,0,0,1,212.06,372.27Zm35,34.46-20.71,12.88a6.76,6.76,0,0,1-3.88,1.1,7.24,7.24,0,0,1-6.22-3.44,7.41,7.41,0,0,1-1.1-3.88,7.12,7.12,0,0,1,3.44-6.14v-.07l20.71-12.89a7.85,7.85,0,0,1,3.88-1.09,7.38,7.38,0,0,1,6.22,3.51,6.75,6.75,0,0,1,1.1,3.81A7.16,7.16,0,0,1,247,406.73Z" transform="translate(0 -62.02)"/></svg>
